<svg xmlns="http://www.w3.org/2000/svg" viewBox="0 0 16 16" fill="#c5a059">
  <path d="M5.338 1.59a.5.5 0 0 1 .42.011l1.678.89 1.678-.89a.5.5 0 0 1 .42-.011l3.5 1.75A.5.5 0 0 1 14 3.791v4.444c0 3.125-1.545 6.014-4.225 7.828l-.348.23a.5.5 0 0 1-.554 0l-.348-.23C5.879 14.43 4.333 11.54 4.333 8.415V3.791a.5.5 0 0 1 .263-.442l3.5-1.75zM8 2.25l-2.667 1.334v4.831c0 2.658 1.305 5.115 3.5 6.643 2.195-1.528 3.5-3.985 3.5-6.643V3.584L8 2.25z"/>
  <path d="M8 5a1.5 1.5 0 0 1 1 2.764V9.5a.5.5 0 0 1-1 0V7.764A1.5 1.5 0 0 1 8 5z"/>
</svg>
